<svg id="Layer_1" data-name="Layer 1" xmlns="http://www.w3.org/2000/svg" xmlns:xlink="http://www.w3.org/1999/xlink" viewBox="0 0 884.94 277.68">
  <defs>
    <clipPath id="clip-path">
      <rect x="205.22" y="67.82" width="16.49" height="11.29" fill="none"/>
    </clipPath>
    <clipPath id="clip-path-2">
      <rect x="205.22" y="67.82" width="14.78" height="11.29" fill="none"/>
    </clipPath>
    <clipPath id="clip-path-3">
      <path d="M207.72,79.11a1,1,0,0,1-.72-.25c-1.15-.88-1.93-3.8-1.75-6.52.14-2.14.83-3.51,1.68-3.58l12.29-.94c-.85.06-1.54,1.44-1.68,3.58-.18,2.72.6,5.63,1.75,6.52a1.13,1.13,0,0,0,.72.25l-12.29.94" fill="none"/>
    </clipPath>
    <clipPath id="clip-path-5">
      <rect x="207.72" y="74.59" width="13.97" height="4.52" fill="none"/>
    </clipPath>
    <clipPath id="clip-path-6">
      <path d="M220,78.17l-12.29.94c.85-.07,1.54-1.44,1.68-3.58l12.29-.94c-.14,2.13-.84,3.51-1.68,3.58" fill="none"/>
    </clipPath>
    <clipPath id="clip-path-8">
      <rect x="206.93" y="67.82" width="14.78" height="7.71" fill="none"/>
    </clipPath>
    <clipPath id="clip-path-9">
      <path d="M206.93,68.76l12.29-.94a1,1,0,0,1,.72.25c1.15.88,1.93,3.8,1.75,6.52l-12.29.94c.18-2.72-.6-5.64-1.75-6.52a1,1,0,0,0-.72-.25" fill="none"/>
    </clipPath>
    <clipPath id="clip-path-11">
      <rect x="202.42" y="57.51" width="15.48" height="28.8" fill="none"/>
    </clipPath>
    <clipPath id="clip-path-12">
      <rect x="148.16" y="10.31" width="16.49" height="11.29" fill="none"/>
    </clipPath>
    <clipPath id="clip-path-13">
      <rect x="148.16" y="10.31" width="14.78" height="11.29" fill="none"/>
    </clipPath>
    <clipPath id="clip-path-14">
      <path d="M150.66,21.6a1,1,0,0,1-.72-.25c-1.15-.88-1.93-3.8-1.75-6.52.14-2.13.83-3.51,1.68-3.57l12.29-.95c-.85.07-1.55,1.45-1.69,3.58-.18,2.72.61,5.64,1.75,6.52a1,1,0,0,0,.72.25l-12.28.94" fill="none"/>
    </clipPath>
    <clipPath id="clip-path-16">
      <rect x="150.66" y="17.08" width="13.97" height="4.52" fill="none"/>
    </clipPath>
    <clipPath id="clip-path-17">
      <path d="M162.94,20.66l-12.28.94c.84-.06,1.54-1.44,1.68-3.58l12.29-.94c-.14,2.14-.84,3.52-1.69,3.58" fill="none"/>
    </clipPath>
    <clipPath id="clip-path-19">
      <rect x="149.87" y="10.31" width="14.78" height="7.71" fill="none"/>
    </clipPath>
    <clipPath id="clip-path-20">
      <path d="M149.87,11.26l12.29-.95a1.1,1.1,0,0,1,.72.26c1.14.88,1.93,3.79,1.75,6.51L152.34,18c.18-2.71-.61-5.63-1.75-6.51a1,1,0,0,0-.72-.25" fill="none"/>
    </clipPath>
    <clipPath id="clip-path-22">
      <rect x="145.35" width="15.48" height="28.8" fill="none"/>
    </clipPath>
    <clipPath id="clip-path-23">
      <rect x="732.47" y="115.4" width="80.81" height="108.5" fill="none"/>
    </clipPath>
    <clipPath id="clip-path-24">
      <rect x="694.45" y="140.52" width="72.88" height="76.82" fill="none"/>
    </clipPath>
    <clipPath id="clip-path-25">
      <rect x="694.45" y="140.52" width="72.88" height="76.82" fill="none"/>
    </clipPath>
    <clipPath id="clip-path-26">
      <rect x="700.2" y="16.52" width="80.51" height="105.13" fill="none"/>
    </clipPath>
    <clipPath id="clip-path-27">
      <rect x="701.2" y="77.87" width="81.55" height="45.57" fill="none"/>
    </clipPath>
    <clipPath id="clip-path-28">
      <rect x="734.62" y="17.86" width="46.1" height="39.81" fill="none"/>
    </clipPath>
    <clipPath id="clip-path-29">
      <rect x="704.33" y="67.71" width="16.39" height="4.52" fill="none"/>
    </clipPath>
    <clipPath id="clip-path-30">
      <rect x="764.37" y="150.3" width="120.58" height="93.03" fill="none"/>
    </clipPath>
  </defs>
  <path d="M340.48,184.63a16.68,16.68,0,0,0-.53,29.9" fill="none" stroke="#000" stroke-linecap="round" stroke-miterlimit="10" stroke-width="6" opacity="0.4"/>
  <path d="M328.43,177.25a24.91,24.91,0,0,0-.79,44.67" fill="none" stroke="#000" stroke-linecap="round" stroke-miterlimit="10" stroke-width="6" opacity="0.2"/>
  <path d="M316.53,169.41a33.66,33.66,0,0,0-1.07,60.35" fill="none" stroke="#000" stroke-linecap="round" stroke-miterlimit="10" stroke-width="6" opacity="0.1"/>
  <path d="M199.7,184.63a16.68,16.68,0,0,1,.53,29.9" fill="none" stroke="#000" stroke-linecap="round" stroke-miterlimit="10" stroke-width="6" opacity="0.4"/>
  <path d="M211.75,177.25a24.91,24.91,0,0,1,.79,44.67" fill="none" stroke="#000" stroke-linecap="round" stroke-miterlimit="10" stroke-width="6" opacity="0.2"/>
  <path d="M223.65,169.41a33.66,33.66,0,0,1,1.07,60.35" fill="none" stroke="#000" stroke-linecap="round" stroke-miterlimit="10" stroke-width="6" opacity="0.1"/>
  <path d="M636.89,190.15a16.68,16.68,0,0,0-.53,29.9" fill="none" stroke="#000" stroke-linecap="round" stroke-miterlimit="10" stroke-width="6" opacity="0.4"/>
  <path d="M624.84,182.77a24.91,24.91,0,0,0-.79,44.66" fill="none" stroke="#000" stroke-linecap="round" stroke-miterlimit="10" stroke-width="6" opacity="0.2"/>
  <path d="M612.93,174.92a33.67,33.67,0,0,0-1.06,60.36" fill="none" stroke="#000" stroke-linecap="round" stroke-miterlimit="10" stroke-width="6" opacity="0.1"/>
  <path d="M496.11,190.15a16.68,16.68,0,0,1,.52,29.9" fill="none" stroke="#000" stroke-linecap="round" stroke-miterlimit="10" stroke-width="6" opacity="0.4"/>
  <path d="M508.16,182.77a24.91,24.91,0,0,1,.79,44.66" fill="none" stroke="#000" stroke-linecap="round" stroke-miterlimit="10" stroke-width="6" opacity="0.2"/>
  <path d="M520.06,174.92a33.66,33.66,0,0,1,1.07,60.36" fill="none" stroke="#000" stroke-linecap="round" stroke-miterlimit="10" stroke-width="6" opacity="0.1"/>
  <g>
    <g>
      <rect x="68.87" y="190.08" width="117.52" height="30.04" fill="#672dd6"/>
      <polygon points="68.86 220 58.76 208.09 58.76 178.05 68.86 189.95 68.86 220" fill="#8557de"/>
      <polygon points="186.39 189.79 69.04 189.85 59.24 178.55 176.59 178.49 186.39 189.79" fill="#c2abef"/>
      <rect x="78.33" y="196.98" width="98.37" height="4.09" rx="2.04"/>
    </g>
    <g>
      <rect x="10.1" y="132.95" width="117.52" height="30.04" fill="#672dd6"/>
      <polygon points="10.1 162.87 0 150.97 0 120.92 10.1 132.83 10.1 162.87" fill="#8557de"/>
      <polygon points="127.63 132.66 10.27 132.73 0.48 121.42 117.83 121.36 127.63 132.66" fill="#c2abef"/>
      <rect x="19.57" y="139.85" width="98.37" height="4.09" rx="2.04"/>
    </g>
    <g>
      <g clip-path="url(#clip-path)">
        <path d="M221.69,74.59c-.18,2.72-1.25,4.21-2.4,3.33s-1.93-3.8-1.75-6.52,1.25-4.21,2.4-3.33,1.93,3.8,1.75,6.52"/>
        <g style="isolation: isolate">
          <g clip-path="url(#clip-path-2)">
            <g clip-path="url(#clip-path-3)">
              <g style="isolation: isolate">
                <g clip-path="url(#clip-path-2)">
                  <path d="M207.72,79.11,220,78.17h-.1l-12.28.94h.09"/>
                  <path d="M207.63,79.11l12.28-.94-.12,0-12.29.95h.13"/>
                  <path d="M207.5,79.1l12.29-.94-.11,0-12.28.94.1,0"/>
                  <path d="M207.4,79.07l12.28-.94-.1,0L207.29,79l.11,0"/>
                  <path d="M207.29,79l12.29-.94-.09,0L207.2,79l.09,0"/>
                  <path d="M207.2,79,219.49,78a.31.31,0,0,1-.1-.05l-12.28.94.09.06"/>
                  <path d="M207.11,78.93,219.39,78l-.09-.06L207,78.87l.09.06"/>
                  <path d="M207,78.87l12.29-.94h0l-.07-.06-12.29.94.07.06h0"/>
                  <path d="M206.93,78.8l12.29-.94-.09-.08-12.29.94.09.08"/>
                  <path d="M206.84,78.72l12.29-.94-.08-.08-12.29.94.08.08"/>
                  <path d="M206.76,78.64l12.29-.94-.08-.09-12.29.94.08.09"/>
                  <path d="M206.68,78.55,219,77.61l-.08-.1-12.29.94.08.1"/>
                  <path d="M206.6,78.45l12.29-.94a1,1,0,0,1-.08-.11l-12.29.95.08.1"/>
                  <path d="M206.52,78.35l12.29-.95a1,1,0,0,1-.08-.11l-12.29.94.08.12"/>
                  <path d="M206.44,78.23l12.29-.94-.08-.12-12.29.94.08.12"/>
                  <path d="M206.36,78.11l12.29-1-.08-.13L206.28,78a1,1,0,0,1,.08.14"/>
                  <path d="M206.28,78,218.57,77l-.08-.15-12.29.94a1.09,1.09,0,0,1,.08.15"/>
                  <path d="M206.2,77.82l12.29-.94-.08-.16-12.29.94s0,.11.08.16"/>
                  <path d="M206.12,77.66l12.29-.94-.08-.18L206,77.49c0,.05.05.11.08.17"/>
                  <path d="M206,77.49l12.29-.95a1.59,1.59,0,0,1-.08-.18l-12.28,1,.07.18"/>
                  <path d="M206,77.31l12.28-1-.06-.16-12.29.94a1.22,1.22,0,0,0,.07.17"/>
                  <path d="M205.9,77.14l12.29-.94-.06-.17L205.84,77l.06.17"/>
                  <path d="M205.84,77,218.13,76a.78.78,0,0,1,0-.14l-12.29.94.05.14"/>
                  <path d="M205.79,76.83l12.29-.94s0-.09-.05-.13l-12.28.94,0,.13" fill="#1f1f1f"/>
                  <path d="M205.75,76.7,218,75.76l0-.12-12.29.94,0,.12" fill="#2b2b2b"/>
                  <path d="M205.71,76.58,218,75.64l0-.11-12.29.94,0,.11" fill="#353535"/>
                  <path d="M205.68,76.47,218,75.53a.45.45,0,0,1,0-.11l-12.29.94,0,.11" fill="#3d3d3d"/>
                  <path d="M205.65,76.36l12.29-.94,0-.1-12.29.94,0,.1" fill="#444"/>
                  <path d="M205.62,76.26l12.29-.94,0-.09-12.28.94a.29.29,0,0,0,0,.09" fill="#4b4b4b"/>
                  <path d="M205.6,76.17l12.28-.94,0-.1-12.29,1,0,.09" fill="#515151"/>
                  <path d="M205.57,76.08l12.29-1,0-.09L205.55,76l0,.1" fill="#575757"/>
                  <path d="M205.55,76,217.84,75l0-.1-12.28,1,0,.09" fill="#5c5c5c"/>
                  <polygon points="205.53 75.89 217.81 74.94 217.79 74.84 205.5 75.78 205.53 75.89" fill="#616161"/>
                  <path d="M205.5,75.79l12.29-1s0-.06,0-.1l-12.29.94a.43.43,0,0,1,0,.11" fill="#656565"/>
                  <path d="M205.48,75.68l12.29-.94,0-.1-12.29.94,0,.1" fill="#6a6a6a"/>
                  <path d="M205.46,75.58l12.29-.94,0-.15-12.29.94,0,.15" fill="#6e6e6e"/>
                  <path d="M205.43,75.43l12.29-.94,0-.17-12.29,1,0,.16" fill="#727272"/>
                  <path d="M205.4,75.27l12.29-1c0-.17-.05-.34-.08-.52l-12.28.94c0,.18,0,.35.07.53" fill="#777"/>
                  <path d="M205.33,74.74l12.28-.94v-.14l-12.29.94,0,.14" fill="#727272"/>
                  <path d="M205.31,74.6l12.29-.94s0-.09,0-.14l-12.29,1s0,.09,0,.13" fill="#6e6e6e"/>
                  <path d="M205.29,74.47l12.29-1s0-.07,0-.11l-12.29.94a.49.49,0,0,1,0,.12" fill="#6a6a6a"/>
                  <path d="M205.28,74.35l12.29-.94v-.09l-12.29.94v.09" fill="#656565"/>
                  <path d="M205.27,74.26l12.29-.94a.28.28,0,0,0,0-.09l-12.28,1v.08" fill="#616161"/>
                  <path d="M205.27,74.18l12.28-1v-.08l-12.29.94a.28.28,0,0,0,0,.09" fill="#5c5c5c"/>
                  <path d="M205.26,74.09l12.29-.94v-.09L205.25,74v.09" fill="#575757"/>
                  <path d="M205.25,74l12.29-.94V73l-12.29.94V74" fill="#515151"/>
                  <path d="M205.25,73.92,217.54,73a.22.22,0,0,1,0-.08l-12.29.94s0,0,0,.08" fill="#4b4b4b"/>
                  <path d="M205.24,73.84l12.29-.94v-.08l-12.29.94v.08" fill="#444"/>
                  <path d="M205.24,73.76l12.29-.94v-.08l-12.28.94v.08" fill="#3d3d3d"/>
                  <path d="M205.23,73.68l12.29-.94v-.08l-12.29.94v.08" fill="#353535"/>
                  <polygon points="205.23 73.6 217.52 72.66 217.52 72.57 205.23 73.51 205.23 73.6" fill="#2b2b2b"/>
                  <path d="M205.23,73.51l12.29-.94v-.09l-12.28.94v.09" fill="#1f1f1f"/>
                  <path d="M205.23,73.42l12.28-.94v-.1l-12.29,1s0,.06,0,.09"/>
                  <path d="M205.22,73.33l12.29-1v-.09l-12.29.94v.1"/>
                  <path d="M205.22,73.23l12.29-.94v-.1l-12.29.94v.1"/>
                  <path d="M205.22,73.13l12.29-.94v-.12L205.22,73v.12"/>
                  <path d="M205.22,73l12.29-.94V72l-12.29.94V73"/>
                  <path d="M205.22,72.89,217.51,72a.49.49,0,0,1,0-.12l-12.29.94a.49.49,0,0,1,0,.12"/>
                  <path d="M205.23,72.77l12.29-.94v-.15l-12.29.95v.14"/>
                  <path d="M205.23,72.63l12.29-.95c0-.05,0-.1,0-.15l-12.29.94s0,.1,0,.16"/>
                  <path d="M205.24,72.47l12.29-.94v-.16l-12.29.94v0s0,.09,0,.13"/>
                  <path d="M205.25,72.31l12.29-.94c0-.06,0-.12,0-.18l-12.29.94c0,.06,0,.12,0,.18"/>
                  <path d="M205.26,72.13l12.29-.94c0-.06,0-.11,0-.17L205.28,72c0,.06,0,.12,0,.17"/>
                  <path d="M205.28,72,217.57,71a1.23,1.23,0,0,1,0-.19l-12.29.94c0,.07,0,.13,0,.19"/>
                  <path d="M205.3,71.78l12.29-1c0-.06,0-.12,0-.18l-12.29.94a1.37,1.37,0,0,1,0,.19"/>
                  <path d="M205.32,71.59l12.29-.94,0-.18-12.29.94,0,.18"/>
                  <path d="M205.35,71.41l12.29-.94,0-.18-12.29.94,0,.18"/>
                  <path d="M205.38,71.23l12.29-.94,0-.18-12.28.94a1.16,1.16,0,0,0,0,.18"/>
                  <path d="M205.42,71.05l12.28-.94a1.36,1.36,0,0,0,0-.17l-12.29.94,0,.17"/>
                  <path d="M205.45,70.88l12.29-.94c0-.06,0-.13,0-.18l-12.29.94c0,.06,0,.12-.05.18"/>
                  <path d="M205.5,70.7l12.29-.94c0-.07,0-.12,0-.18l-12.28.94a1.21,1.21,0,0,0-.05.18"/>
                  <path d="M205.55,70.52l12.28-.94.06-.19-12.29.94c0,.06,0,.13,0,.19"/>
                  <path d="M205.6,70.33l12.29-.94a1.46,1.46,0,0,1,.07-.19l-12.29.94a1.07,1.07,0,0,1-.07.19"/>
                  <path d="M205.67,70.14,218,69.2,218,69,205.75,70a1.54,1.54,0,0,0-.08.19"/>
                  <path d="M205.75,70,218,69a2.09,2.09,0,0,1,.1-.21l-12.29.94-.09.21"/>
                  <path d="M205.84,69.74l12.29-.94a2,2,0,0,1,.14-.25L206,69.49l-.14.25"/>
                  <path d="M206,69.49l12.29-.94a1.29,1.29,0,0,1,.95-.73l-12.29.94a1.33,1.33,0,0,0-1,.73"/>
                </g>
              </g>
            </g>
          </g>
        </g>
        <g style="isolation: isolate">
          <g clip-path="url(#clip-path-5)">
            <g clip-path="url(#clip-path-6)">
              <g style="isolation: isolate">
                <g clip-path="url(#clip-path-5)">
                  <path d="M209.4,75.53l12.29-.94v0l-12.29,1v0"/>
                  <path d="M209.4,75.56l12.29-1a1.15,1.15,0,0,0,0,.18l-12.29.95c0-.06,0-.12,0-.18"/>
                  <path d="M209.39,75.74l12.28-.95c0,.06,0,.12,0,.18l-12.29.94c0-.06,0-.12,0-.17"/>
                  <path d="M209.37,75.91,221.66,75c0,.06,0,.12,0,.18l-12.29.95c0-.07,0-.13,0-.19"/>
                  <path d="M209.35,76.1l12.29-.95,0,.18-12.29,1c0-.06,0-.12,0-.18"/>
                  <path d="M209.33,76.28l12.28-1a1.11,1.11,0,0,1,0,.19l-12.29.94,0-.18"/>
                  <path d="M209.3,76.46l12.29-.94,0,.17-12.29,1,0-.18"/>
                  <path d="M209.27,76.64l12.29-1c0,.06,0,.13,0,.18l-12.29.95a1.16,1.16,0,0,0,0-.18"/>
                  <path d="M209.23,76.82l12.29-.95a1.16,1.16,0,0,1,0,.18L209.2,77l0-.17"/>
                  <path d="M209.2,77l12.28-.94a1.16,1.16,0,0,1,0,.18l-12.29.94c0-.06,0-.12,0-.18"/>
                  <path d="M209.15,77.17l12.29-.94c0,.06,0,.12-.05.18l-12.29.94a1.21,1.21,0,0,0,.05-.18"/>
                  <path d="M209.1,77.35l12.29-.94-.06.18-12.28,1a1.33,1.33,0,0,0,0-.19"/>
                  <path d="M209.05,77.54l12.28-1-.06.19-12.29,1c0-.07.05-.13.07-.19"/>
                  <path d="M209,77.73l12.29-1c0,.07-.05.14-.08.2l-12.29.94a1.54,1.54,0,0,0,.08-.19"/>
                  <path d="M208.9,77.92,221.19,77l-.09.21-12.29.94.09-.21"/>
                  <path d="M208.81,78.13l12.29-.94-.14.25-12.29.94a2,2,0,0,0,.14-.25"/>
                  <path d="M208.67,78.38,221,77.44a1.33,1.33,0,0,1-1,.73l-12.29.94a1.31,1.31,0,0,0,.95-.73"/>
                </g>
              </g>
            </g>
          </g>
        </g>
        <g style="isolation: isolate">
          <g clip-path="url(#clip-path-8)">
            <g clip-path="url(#clip-path-9)">
              <g style="isolation: isolate">
                <g clip-path="url(#clip-path-8)">
                  <path d="M206.93,68.76l12.29-.94h.09L207,68.76h-.09"/>
                  <path d="M207,68.76l12.29-.94h.13l-12.29.94H207"/>
                  <path d="M207.15,68.77l12.28-.94.11,0-12.29.94-.1,0"/>
                  <path d="M207.25,68.8l12.29-.94.1,0-12.28.94-.11,0"/>
                  <path d="M207.36,68.84l12.28-.94.1,0-12.29.94-.09,0"/>
                  <path d="M207.45,68.88l12.29-.94.09.06-12.28.94-.1-.06"/>
                  <path d="M207.55,68.94,219.83,68l.09.06L207.64,69l-.09-.06"/>
                  <path d="M207.64,69l12.28-.94h0l.07.06-12.29.94-.07-.06h0"/>
                  <path d="M207.72,69.07,220,68.13l.09.08-12.29.94-.09-.08"/>
                  <path d="M207.81,69.15l12.29-.94.08.08-12.29.94-.08-.08"/>
                  <path d="M207.89,69.23l12.29-.94.08.09L208,69.32l-.08-.09"/>
                  <path d="M208,69.32l12.29-.94.08.1-12.29.94-.08-.1"/>
                  <path d="M208.05,69.42l12.29-.94.08.1-12.29.94-.08-.1"/>
                  <path d="M208.13,69.52l12.29-.94.08.12-12.29.94-.08-.12"/>
                  <path d="M208.21,69.64l12.29-.94.08.12-12.29.94-.08-.12"/>
                  <path d="M208.29,69.76l12.29-.94a1,1,0,0,0,.08.14l-12.29.94-.08-.14"/>
                  <path d="M208.37,69.9,220.66,69a1.09,1.09,0,0,0,.08.15l-12.29.94-.08-.15"/>
                  <path d="M208.45,70.05l12.29-.94s0,.1.08.16l-12.29.94-.08-.16"/>
                  <path d="M208.53,70.21l12.29-.94a1.3,1.3,0,0,0,.08.17l-12.29.94s-.05-.11-.08-.17"/>
                  <path d="M208.61,70.38l12.29-.94.07.18-12.28.94a1.42,1.42,0,0,1-.08-.18"/>
                  <path d="M208.69,70.56,221,69.62c0,.06.05.11.07.17l-12.29.94-.06-.17"/>
                  <path d="M208.75,70.73,221,69.79l.06.17-12.29.94-.06-.17"/>
                  <path d="M208.81,70.9,221.1,70s0,.09.05.13l-12.29,1-.05-.14"/>
                  <path d="M208.86,71l12.29-1s0,.1,0,.14l-12.29.94,0-.13" fill="#1f1f1f"/>
                  <path d="M208.9,71.17l12.29-.94s0,.08,0,.12l-12.29.94a.56.56,0,0,0,0-.12" fill="#2b2b2b"/>
                  <path d="M208.94,71.29l12.29-.94,0,.11L209,71.4l0-.11" fill="#353535"/>
                  <path d="M209,71.4l12.29-.94,0,.1-12.29,1,0-.11" fill="#3d3d3d"/>
                  <path d="M209,71.51l12.29-.94,0,.1L209,71.61l0-.1" fill="#444"/>
                  <path d="M209,71.61l12.29-.94a.29.29,0,0,1,0,.09l-12.28.94,0-.09" fill="#4b4b4b"/>
                  <path d="M209.06,71.7l12.28-.94,0,.09-12.29.94a.29.29,0,0,1,0-.09" fill="#515151"/>
                  <path d="M209.08,71.79l12.29-.94,0,.1-12.29.94,0-.1" fill="#575757"/>
                  <path d="M209.1,71.89,221.39,71s0,.06,0,.09L209.12,72a.29.29,0,0,0,0-.09" fill="#5c5c5c"/>
                  <path d="M209.12,72,221.41,71a.44.44,0,0,1,0,.1l-12.28.94,0-.1" fill="#616161"/>
                  <path d="M209.15,72.08l12.28-.94a.44.44,0,0,1,0,.1l-12.28,1a.43.43,0,0,1,0-.11" fill="#656565"/>
                  <path d="M209.17,72.19l12.28-1,0,.11-12.29.94a.44.44,0,0,1,0-.1" fill="#6a6a6a"/>
                  <path d="M209.19,72.29l12.29-.94,0,.15-12.28.94,0-.15" fill="#6e6e6e"/>
                  <path d="M209.22,72.44l12.28-.94,0,.16-12.28.94,0-.16" fill="#727272"/>
                  <path d="M209.25,72.6l12.28-.94c0,.17.06.35.08.53l-12.29.94c0-.18,0-.35-.07-.53" fill="#777"/>
                  <path d="M209.33,73.13l12.28-.94s0,.09,0,.14l-12.29.94s0-.09,0-.14" fill="#727272"/>
                  <path d="M209.34,73.27l12.29-.94s0,.09,0,.13l-12.28.94s0-.09,0-.13" fill="#6e6e6e"/>
                  <path d="M209.36,73.4l12.28-.94s0,.08,0,.12l-12.29.94V73.4" fill="#6a6a6a"/>
                  <path d="M209.37,73.52l12.29-.94v.09l-12.28.94a.28.28,0,0,1,0-.09" fill="#656565"/>
                  <path d="M209.38,73.61l12.28-.94a.22.22,0,0,1,0,.08l-12.29.94v-.08" fill="#616161"/>
                  <path d="M209.38,73.69l12.29-.94s0,.06,0,.09l-12.29.94a.28.28,0,0,0,0-.09" fill="#5c5c5c"/>
                  <path d="M209.39,73.78l12.29-.94v.09l-12.28.94v-.09" fill="#575757"/>
                  <path d="M209.4,73.87l12.29-.94V73L209.4,74v-.08" fill="#515151"/>
                  <path d="M209.4,74,221.69,73a.25.25,0,0,0,0,.08L209.41,74s0,0,0-.08" fill="#4b4b4b"/>
                  <path d="M209.41,74l12.29-.94v.08l-12.29.94V74" fill="#444"/>
                  <path d="M209.41,74.11l12.29-.94v.08l-12.28.94a.22.22,0,0,1,0-.08" fill="#3d3d3d"/>
                  <path d="M209.42,74.19l12.28-.94s0,0,0,.08l-12.29.94v-.08" fill="#353535"/>
                  <polygon points="209.42 74.27 221.71 73.33 221.71 73.42 209.42 74.36 209.42 74.27" fill="#2b2b2b"/>
                  <path d="M209.42,74.36l12.29-.94v.09l-12.29.94v-.09" fill="#1f1f1f"/>
                  <path d="M209.42,74.45l12.29-.94v.09l-12.28,1v-.1"/>
                  <path d="M209.43,74.54l12.28-.94a.38.38,0,0,0,0,.1l-12.29.94v-.1"/>
                  <path d="M209.43,74.64l12.29-.94v.09l-12.29.95v-.1"/>
                  <path d="M209.43,74.74l12.29-.95v.13l-12.29.94v-.12"/>
                  <path d="M209.43,74.86l12.29-.94s0,.07,0,.12L209.43,75v-.12"/>
                  <path d="M209.43,75,221.71,74v.12l-12.29.94s0-.08,0-.12"/>
                  <path d="M209.42,75.1l12.29-.94v.14l-12.29.94V75.1"/>
                  <path d="M209.42,75.24l12.29-.94a.86.86,0,0,0,0,.16l-12.29.94c0-.05,0-.1,0-.16"/>
                  <path d="M209.41,75.4l12.29-.94s0,.08,0,.13l-12.29.94a.57.57,0,0,0,0-.13"/>
                </g>
              </g>
            </g>
          </g>
        </g>
        <path d="M209.4,75.53c-.18,2.72-1.25,4.21-2.4,3.33s-1.93-3.8-1.75-6.52,1.25-4.21,2.4-3.33,1.93,3.8,1.75,6.52"/>
      </g>
      <polygon points="171.56 82.23 167.81 75.66 167.83 179.9 171.59 186.47 171.56 82.23" fill="#e2e2e2"/>
      <polygon points="186.45 114.04 190.07 120.13 190.07 81.76 186.45 75.66 186.45 114.04" fill="#e2e2e2"/>
      <path d="M190.07,120a6.15,6.15,0,0,1-9.33.13l-3.62-6.22a6.53,6.53,0,0,0,4.65,2.07c1.88,0,4.41-1.06,4.66-2.59" fill="#e2e2e2"/>
      <polygon points="177.14 114.04 180.76 120.13 180.76 81.76 177.14 75.66 177.14 114.04" fill="#9e9e9e"/>
      <path d="M167.8,75.66a6.43,6.43,0,0,1,4.68-2.2,6.35,6.35,0,0,1,4.66,2.08l3.62,6.22a6.56,6.56,0,0,0-4.66-2.08c-1.88,0-4.4,1.07-4.65,2.6" fill="#e2e2e2"/>
      <path d="M208.69,120a6.15,6.15,0,0,1-9.33.13l-3.62-6.22a6.53,6.53,0,0,0,4.65,2.07c1.89,0,4.41-1.06,4.66-2.59" fill="#e2e2e2"/>
      <polygon points="195.76 114.04 199.38 120.13 199.38 81.76 195.76 75.66 195.76 114.04" fill="#9e9e9e"/>
      <path d="M186.43,75.66a6.16,6.16,0,0,1,9.33-.12l3.62,6.22a6.53,6.53,0,0,0-4.65-2.08c-1.89,0-4.41,1.07-4.66,2.6" fill="#e2e2e2"/>
      <g clip-path="url(#clip-path-11)">
        <polygon points="217.9 85.62 211.41 86.31 211.41 65.49 217.9 64.8 217.9 85.62" fill="#267490"/>
        <polygon points="217.9 64.8 211.41 65.49 202.42 58.2 208.91 57.51 217.9 64.8" fill="#3ab2dd"/>
        <polygon points="202.42 58.2 211.41 65.49 211.41 86.31 202.42 79.01 202.42 58.2" fill="#2d8cad"/>
      </g>
      <polygon points="205.07 114.04 208.69 120.13 208.69 73.46 205.07 70.35 205.07 114.04" fill="#e2e2e2"/>
    </g>
    <g>
      <g clip-path="url(#clip-path-12)">
        <path d="M164.63,17.08c-.18,2.72-1.26,4.21-2.4,3.33s-1.94-3.8-1.76-6.52,1.26-4.21,2.41-3.32,1.93,3.79,1.75,6.51"/>
        <g style="isolation: isolate">
          <g clip-path="url(#clip-path-13)">
            <g clip-path="url(#clip-path-14)">
              <g style="isolation: isolate">
                <g clip-path="url(#clip-path-13)">
                  <path d="M150.66,21.6l12.28-.94h-.09l-12.29.94h.1"/>
                  <path d="M150.56,21.6l12.29-.94h-.12l-12.29.94h.12"/>
                  <path d="M150.44,21.59l12.29-.94-.11,0-12.29.94.11,0"/>
                  <path d="M150.33,21.56l12.29-.94-.1,0-12.29,1,.1,0"/>
                  <path d="M150.23,21.53l12.29-.94-.1-.05-12.29.94.1.05"/>
                  <path d="M150.13,21.48l12.29-.94-.09-.06L150,21.43l.09.05"/>
                  <path d="M150,21.43l12.29-.95-.09-.06L150,21.36l.09.07"/>
                  <path d="M150,21.36l12.29-.94h0l-.08-.06-12.28.94.07.06h0"/>
                  <path d="M149.87,21.29l12.28-.94-.08-.08-12.29.95.09.07"/>
                  <path d="M149.78,21.22l12.29-.95a.3.3,0,0,1-.08-.08l-12.29.94.08.09"/>
                  <path d="M149.7,21.13,162,20.19l-.09-.09L149.62,21l.08.09"/>
                  <path d="M149.62,21l12.29-.94-.09-.1-12.28.94a.39.39,0,0,0,.08.1"/>
                  <path d="M149.54,21,161.82,20a.86.86,0,0,1-.07-.1l-12.29.94a.76.76,0,0,0,.08.11"/>
                  <path d="M149.46,20.84l12.29-.94-.08-.12-12.29.94.08.12"/>
                  <path d="M149.38,20.72l12.29-.94-.08-.12-12.29.94.08.12"/>
                  <path d="M149.3,20.6l12.29-.94a1,1,0,0,1-.08-.14l-12.29.94c0,.05.05.1.08.14"/>
                  <path d="M149.22,20.46l12.29-.94a1.09,1.09,0,0,1-.08-.15l-12.29.95.08.14"/>
                  <path d="M149.14,20.32l12.29-.95a.8.8,0,0,1-.08-.16l-12.29.94.08.17"/>
                  <path d="M149.06,20.15l12.29-.94a1.3,1.3,0,0,1-.08-.17L149,20a.89.89,0,0,0,.08.17"/>
                  <path d="M149,20,161.27,19l-.08-.18-12.29.94L149,20"/>
                  <path d="M148.9,19.8l12.29-.94a1.22,1.22,0,0,0-.07-.17l-12.28.94.06.17"/>
                  <path d="M148.84,19.63l12.28-.94-.06-.17-12.29.94c0,.06,0,.12.07.17"/>
                  <path d="M148.77,19.46l12.29-.94,0-.13-12.29.94,0,.13"/>
                  <path d="M148.73,19.33,161,18.39l-.05-.14-12.29.94,0,.14" fill="#1f1f1f"/>
                  <path d="M148.68,19.19,161,18.25l0-.12-12.28.94,0,.12" fill="#2b2b2b"/>
                  <path d="M148.65,19.07l12.28-.94,0-.11L148.62,19l0,.1" fill="#353535"/>
                  <path d="M148.62,19,160.9,18l0-.1-12.29.94a.76.76,0,0,0,0,.11" fill="#3d3d3d"/>
                  <path d="M148.58,18.86l12.29-.94,0-.11-12.28.94s0,.07,0,.11" fill="#444"/>
                  <path d="M148.56,18.75l12.28-.94a.29.29,0,0,0,0-.09l-12.29.94,0,.09" fill="#4b4b4b"/>
                  <path d="M148.53,18.66l12.29-.94,0-.09-12.29.94a.29.29,0,0,1,0,.09" fill="#515151"/>
                  <path d="M148.51,18.57l12.29-.94,0-.1-12.28.95,0,.09" fill="#575757"/>
                  <path d="M148.49,18.48l12.28-.95,0-.09-12.29.94,0,.1" fill="#5c5c5c"/>
                  <polygon points="148.46 18.38 160.75 17.44 160.73 17.34 148.44 18.28 148.46 18.38" fill="#616161"/>
                  <path d="M148.44,18.28l12.29-.94s0-.07,0-.1l-12.29.94s0,.07,0,.1" fill="#656565"/>
                  <path d="M148.42,18.18l12.29-.94,0-.11-12.29.95,0,.1" fill="#6a6a6a"/>
                  <path d="M148.4,18.08l12.29-.95,0-.14-12.29.94,0,.15" fill="#6e6e6e"/>
                  <path d="M148.37,17.93,160.66,17l0-.17-12.29.94,0,.17" fill="#727272"/>
                  <path d="M148.34,17.76l12.29-.94c0-.17-.06-.35-.08-.53l-12.29.94c0,.18.05.36.08.53" fill="#777"/>
                  <path d="M148.26,17.23l12.29-.94,0-.13-12.28.94v.13" fill="#727272"/>
                  <path d="M148.25,17.1l12.28-.94c0-.05,0-.1,0-.14L148.23,17c0,.05,0,.09,0,.14" fill="#6e6e6e"/>
                  <path d="M148.23,17,160.52,16a.49.49,0,0,1,0-.12l-12.29.94s0,.08,0,.12" fill="#6a6a6a"/>
                  <path d="M148.22,16.84l12.29-.94v-.09l-12.29,1v.08" fill="#656565"/>
                  <path d="M148.21,16.76l12.29-1s0-.05,0-.08l-12.29.94a.28.28,0,0,1,0,.09" fill="#616161"/>
                  <path d="M148.2,16.67l12.29-.94v-.09l-12.28.94v.09" fill="#5c5c5c"/>
                  <path d="M148.2,16.58l12.28-.94v-.08l-12.29.94v.08" fill="#575757"/>
                  <path d="M148.19,16.5l12.29-.94s0-.06,0-.09l-12.29,1a.19.19,0,0,1,0,.08" fill="#515151"/>
                  <path d="M148.18,16.42l12.29-1v-.08l-12.29.95v.08" fill="#4b4b4b"/>
                  <path d="M148.18,16.34l12.29-.95v-.08l-12.28.94v.09" fill="#444"/>
                  <path d="M148.18,16.25l12.28-.94v-.08l-12.29.94v.08" fill="#3d3d3d"/>
                  <path d="M148.17,16.17l12.29-.94v-.08l-12.29.94v.08" fill="#353535"/>
                  <polygon points="148.17 16.09 160.46 15.15 160.45 15.06 148.17 16.01 148.17 16.09" fill="#2b2b2b"/>
                  <path d="M148.17,16l12.28-1V15l-12.29.94V16" fill="#1f1f1f"/>
                  <path d="M148.16,15.91,160.45,15v-.09l-12.29.94v.09"/>
                  <path d="M148.16,15.82l12.29-.94v-.1l-12.29,1v.09"/>
                  <path d="M148.16,15.73l12.29-.94v-.1l-12.29.94v.1"/>
                  <path d="M148.16,15.63l12.29-.94v-.12l-12.29.94v.12"/>
                  <path d="M148.16,15.51l12.29-.94v-.12l-12.29.94v.12"/>
                  <path d="M148.16,15.39l12.29-.94v-.12l-12.29.94v.12"/>
                  <path d="M148.17,15.27l12.28-.94c0-.05,0-.1,0-.15l-12.29.94v.15"/>
                  <path d="M148.17,15.12l12.29-.94a.92.92,0,0,1,0-.16l-12.29,1a.76.76,0,0,0,0,.15"/>
                  <path d="M148.18,15l12.29-1v-.15l-12.28.94v0a.66.66,0,0,0,0,.14"/>
                  <path d="M148.19,14.81l12.28-.94c0-.06,0-.12,0-.18l-12.29.94c0,.06,0,.12,0,.18"/>
                  <path d="M148.2,14.63l12.29-.94a1.1,1.1,0,0,1,0-.18l-12.29.94c0,.06,0,.12,0,.18"/>
                  <path d="M148.22,14.45l12.28-.94a1.1,1.1,0,0,0,0-.18l-12.28.94a1.1,1.1,0,0,0,0,.18"/>
                  <path d="M148.24,14.27l12.29-.94a1.1,1.1,0,0,1,0-.18l-12.29.94c0,.06,0,.12,0,.18"/>
                  <path d="M148.26,14.09l12.29-.94c0-.06,0-.13,0-.18l-12.29.94,0,.18"/>
                  <path d="M148.29,13.91,160.58,13l0-.18-12.29.94,0,.18"/>
                  <path d="M148.32,13.73l12.29-.94,0-.18-12.29.94,0,.18"/>
                  <path d="M148.35,13.55l12.29-.94c0-.06,0-.12,0-.18l-12.29.94a1.16,1.16,0,0,1,0,.18"/>
                  <path d="M148.39,13.37l12.29-.94c0-.06,0-.12,0-.18l-12.28.94c0,.06,0,.12-.05.18"/>
                  <path d="M148.44,13.19l12.28-.94c0-.06,0-.12.05-.18L148.48,13c0,.06,0,.12,0,.18"/>
                  <path d="M148.48,13l12.29-.94.06-.18-12.29.94-.06.18"/>
                  <path d="M148.54,12.83l12.29-.94.06-.19-12.28.94a1.07,1.07,0,0,0-.07.19"/>
                  <path d="M148.61,12.64l12.28-.94c0-.07.05-.14.08-.2l-12.29.94c0,.07-.05.13-.07.2"/>
                  <path d="M148.68,12.44,161,11.5a2,2,0,0,1,.1-.21l-12.29.94-.1.21"/>
                  <path d="M148.78,12.23l12.29-.94c0-.09.09-.17.13-.25l-12.29,1-.13.24"/>
                  <path d="M148.92,12l12.28-1a1.33,1.33,0,0,1,1-.73l-12.29.95a1.27,1.27,0,0,0-1,.73"/>
                </g>
              </g>
            </g>
          </g>
        </g>
        <g style="isolation: isolate">
          <g clip-path="url(#clip-path-16)">
            <g clip-path="url(#clip-path-17)">
              <g style="isolation: isolate">
                <g clip-path="url(#clip-path-16)">
                  <path d="M152.34,18l12.29-1v0l-12.29.94v0"/>
                  <path d="M152.34,18.05l12.29-.94c0,.06,0,.12,0,.18l-12.29.94c0-.06,0-.12,0-.18"/>
                  <path d="M152.32,18.23l12.29-.94c0,.06,0,.12,0,.17l-12.29.95c0-.06,0-.12,0-.18"/>
                  <path d="M152.31,18.41l12.29-.95a1.37,1.37,0,0,0,0,.19l-12.29.94a1.1,1.1,0,0,1,0-.18"/>
                  <path d="M152.29,18.59l12.28-.94,0,.18-12.29.94,0-.18"/>
                  <path d="M152.26,18.77l12.29-.94,0,.18L152.24,19a1.1,1.1,0,0,0,0-.18"/>
                  <path d="M152.24,19,164.52,18a.57.57,0,0,1,0,.18l-12.28.94,0-.18"/>
                  <path d="M152.21,19.13l12.28-.94,0,.18-12.29.94c0-.06,0-.12,0-.18"/>
                  <path d="M152.17,19.31l12.29-.94c0,.06,0,.12,0,.17l-12.29.95a1.16,1.16,0,0,0,0-.18"/>
                  <path d="M152.13,19.49l12.29-.95c0,.07,0,.13,0,.19l-12.29.94c0-.06,0-.12,0-.18"/>
                  <path d="M152.09,19.67l12.29-.94c0,.06,0,.12,0,.17l-12.29,1c0-.06,0-.12.05-.18"/>
                  <path d="M152,19.85l12.29-1-.06.19L152,20l.06-.18"/>
                  <path d="M152,20l12.29-.94-.06.19-12.29.94L152,20"/>
                  <path d="M151.92,20.22l12.29-.94c0,.07-.05.13-.08.19l-12.29,1,.08-.2"/>
                  <path d="M151.84,20.42l12.29-1a1,1,0,0,1-.1.21l-12.28.94.09-.2"/>
                  <path d="M151.75,20.63,164,19.68c0,.09-.09.18-.13.25l-12.29.94c0-.07.09-.16.14-.24"/>
                  <path d="M151.61,20.87l12.29-.94a1.31,1.31,0,0,1-1,.73l-12.28.94a1.28,1.28,0,0,0,1-.73"/>
                </g>
              </g>
            </g>
          </g>
        </g>
        <g style="isolation: isolate">
          <g clip-path="url(#clip-path-19)">
            <g clip-path="url(#clip-path-20)">
              <g style="isolation: isolate">
                <g clip-path="url(#clip-path-19)">
                  <path d="M149.87,11.26l12.29-.95h.09L150,11.25h-.09"/>
                  <path d="M150,11.25l12.29-.94.12,0-12.29.94-.12,0"/>
                  <path d="M150.08,11.27l12.29-.94.11,0-12.29.94-.11,0"/>
                  <path d="M150.19,11.29l12.29-.94.1,0-12.29.94-.1,0"/>
                  <path d="M150.29,11.33l12.29-.94.1,0-12.29.94-.1-.05"/>
                  <path d="M150.39,11.38l12.29-.94.09.05-12.29.94-.09,0"/>
                  <path d="M150.48,11.43l12.29-.94.09.06-12.29.95-.09-.07"/>
                  <path d="M150.57,11.5l12.29-.95,0,0,.07,0-12.29,1-.07-.06h0"/>
                  <path d="M150.66,11.57l12.29-1,.08.08-12.29.94-.08-.07"/>
                  <path d="M150.74,11.64,163,10.7l.08.08-12.28,1-.09-.09"/>
                  <path d="M150.83,11.73l12.28-1,.09.09-12.29,1-.08-.09"/>
                  <path d="M150.91,11.82l12.29-1a.39.39,0,0,0,.08.1L151,11.91l-.08-.09"/>
                  <path d="M151,11.91,163.28,11l.07.11L151.07,12a.76.76,0,0,1-.08-.11"/>
                  <path d="M151.07,12l12.28-.94a.44.44,0,0,1,.08.11l-12.28.94a.76.76,0,0,1-.08-.11"/>
                  <path d="M151.15,12.13l12.28-.94a.57.57,0,0,1,.08.13l-12.28.94-.08-.13"/>
                  <path d="M151.22,12.26l12.29-.94.08.13-12.28,1-.09-.14"/>
                  <path d="M151.31,12.4l12.28-1a1.09,1.09,0,0,1,.08.15l-12.28.94-.08-.14"/>
                  <path d="M151.39,12.54l12.28-.94a1.3,1.3,0,0,1,.08.17l-12.28.94a1.3,1.3,0,0,1-.08-.17"/>
                  <path d="M151.47,12.71l12.28-.94a.89.89,0,0,1,.08.17l-12.28.94-.08-.17"/>
                  <path d="M151.55,12.88l12.28-.94a1.42,1.42,0,0,1,.08.18l-12.29.94-.07-.18"/>
                  <path d="M151.62,13.06l12.29-.94a1.11,1.11,0,0,0,.07.16l-12.29,1c0-.06-.05-.12-.07-.17"/>
                  <path d="M151.69,13.23l12.29-1,.06.17-12.29,1-.06-.17"/>
                  <path d="M151.75,13.4l12.29-1c0,.05,0,.09,0,.14l-12.28.94s0-.09-.05-.13"/>
                  <path d="M151.8,13.53l12.28-.94s0,.09,0,.14l-12.29.94c0-.05,0-.09,0-.14" fill="#1f1f1f"/>
                  <path d="M151.84,13.67l12.29-.94a.84.84,0,0,0,0,.12l-12.29.94s0-.08,0-.12" fill="#2b2b2b"/>
                  <path d="M151.88,13.79l12.29-.94,0,.1-12.29.94,0-.1" fill="#353535"/>
                  <path d="M151.91,13.89,164.2,13l0,.11L151.94,14l0-.11" fill="#3d3d3d"/>
                  <path d="M151.94,14l12.29-.94,0,.1L152,14.1l0-.1" fill="#444"/>
                  <path d="M152,14.1l12.29-.94a.29.29,0,0,0,0,.09L152,14.2s0-.07,0-.1" fill="#4b4b4b"/>
                  <path d="M152,14.2l12.29-.95a.44.44,0,0,1,0,.1L152,14.29l0-.09" fill="#515151"/>
                  <path d="M152,14.29l12.28-.94,0,.09L152,14.38l0-.09" fill="#575757"/>
                  <path d="M152,14.38l12.29-.94a.44.44,0,0,0,0,.1l-12.29.94s0-.07,0-.1" fill="#5c5c5c"/>
                  <path d="M152.06,14.48l12.29-.94s0,.06,0,.1l-12.29.94a.36.36,0,0,0,0-.1" fill="#616161"/>
                  <path d="M152.08,14.58l12.29-.94s0,.06,0,.1l-12.29.94a.36.36,0,0,0,0-.1" fill="#656565"/>
                  <path d="M152.1,14.68l12.29-.94a.36.36,0,0,1,0,.1l-12.28.94,0-.1" fill="#6a6a6a"/>
                  <path d="M152.13,14.78l12.28-.94,0,.15-12.29.94,0-.15" fill="#6e6e6e"/>
                  <path d="M152.15,14.93,164.44,14l0,.17-12.29.94,0-.17" fill="#727272"/>
                  <path d="M152.18,15.1l12.29-.94c0,.17.06.34.08.52l-12.29.94c0-.17,0-.35-.08-.52" fill="#777"/>
                  <path d="M152.26,15.62l12.29-.94c0,.05,0,.09,0,.14l-12.29.94s0-.09,0-.14" fill="#727272"/>
                  <path d="M152.28,15.76l12.29-.94s0,.09,0,.14l-12.29.94c0-.05,0-.09,0-.14" fill="#6e6e6e"/>
                  <path d="M152.29,15.9,164.58,15a.49.49,0,0,1,0,.12L152.31,16l0-.12" fill="#6a6a6a"/>
                  <path d="M152.31,16l12.28-.94a.19.19,0,0,1,0,.08l-12.29.94V16" fill="#656565"/>
                  <path d="M152.31,16.1l12.29-.94s0,.06,0,.09l-12.29.94a.28.28,0,0,0,0-.09" fill="#616161"/>
                  <path d="M152.32,16.19l12.29-.94a.22.22,0,0,0,0,.08l-12.29,1s0-.06,0-.09" fill="#5c5c5c"/>
                  <path d="M152.33,16.28l12.29-1v.09l-12.29.94v-.08" fill="#575757"/>
                  <path d="M152.33,16.36l12.29-.94s0,.05,0,.08l-12.29.94v-.08" fill="#515151"/>
                  <path d="M152.34,16.44l12.29-.94v.08l-12.29.94v-.08" fill="#4b4b4b"/>
                  <path d="M152.34,16.52l12.29-.94s0,.06,0,.08l-12.29.94v-.08" fill="#444"/>
                  <path d="M152.35,16.6l12.29-.94v.08l-12.29.94V16.6" fill="#3d3d3d"/>
                  <path d="M152.35,16.68l12.29-.94v.08l-12.28.94v-.08" fill="#353535"/>
                  <polygon points="152.36 16.77 164.64 15.82 164.65 15.91 152.36 16.85 152.36 16.77" fill="#2b2b2b"/>
                  <path d="M152.36,16.85l12.29-.94V16L152.36,17v-.1" fill="#1f1f1f"/>
                  <path d="M152.36,17,164.65,16v.1L152.36,17V17"/>
                  <path d="M152.36,17l12.29-.94v.09l-12.29.94V17"/>
                  <path d="M152.36,17.13l12.29-.94v.1l-12.28.94s0-.07,0-.1"/>
                  <path d="M152.37,17.23l12.28-.94v.12l-12.29.94a.49.49,0,0,0,0-.12"/>
                  <path d="M152.36,17.35l12.29-.94v.12l-12.29.94v-.12"/>
                  <path d="M152.36,17.47l12.29-.94v.12l-12.29.94v-.12"/>
                  <path d="M152.36,17.59l12.29-.94c0,.05,0,.1,0,.15l-12.29.94a.76.76,0,0,0,0-.15"/>
                  <path d="M152.35,17.74l12.29-.94a.76.76,0,0,1,0,.15l-12.28.94v-.15"/>
                  <path d="M152.35,17.89,164.63,17v.13l-12.29,1c0-.05,0-.09,0-.14"/>
                </g>
              </g>
            </g>
          </g>
        </g>
        <path d="M152.34,18c-.18,2.71-1.26,4.2-2.4,3.32s-1.93-3.8-1.75-6.52,1.25-4.2,2.4-3.32,1.93,3.8,1.75,6.52"/>
      </g>
      <polygon points="114.5 24.73 110.74 18.16 110.77 122.39 114.52 128.96 114.5 24.73" fill="#e2e2e2"/>
      <polygon points="129.39 56.53 133.01 62.63 133.01 24.25 129.39 18.16 129.39 56.53" fill="#e2e2e2"/>
      <path d="M133,62.5a6.18,6.18,0,0,1-9.34.13l-3.62-6.23a6.58,6.58,0,0,0,4.66,2.08c1.88,0,4.4-1.07,4.65-2.6" fill="#e2e2e2"/>
      <polygon points="120.08 56.53 123.7 62.63 123.7 24.25 120.08 18.16 120.08 56.53" fill="#9e9e9e"/>
      <path d="M110.74,18.16a6.18,6.18,0,0,1,9.34-.13l3.62,6.22A6.62,6.62,0,0,0,119,22.18c-1.88,0-4.4,1.06-4.66,2.59" fill="#e2e2e2"/>
      <path d="M151.63,62.5a6.17,6.17,0,0,1-9.33.13l-3.62-6.23a6.53,6.53,0,0,0,4.65,2.08c1.88,0,4.41-1.07,4.66-2.6" fill="#e2e2e2"/>
      <polygon points="138.7 56.53 142.32 62.63 142.32 24.25 138.7 18.16 138.7 56.53" fill="#9e9e9e"/>
      <path d="M129.36,18.16A6.18,6.18,0,0,1,138.7,18l3.62,6.22a6.6,6.6,0,0,0-4.66-2.07c-1.88,0-4.4,1.06-4.65,2.59" fill="#e2e2e2"/>
      <g clip-path="url(#clip-path-22)">
        <polygon points="160.83 28.11 154.34 28.8 154.35 7.99 160.84 7.3 160.83 28.11" fill="#267490"/>
        <polygon points="160.84 7.3 154.35 7.99 145.36 0.69 151.85 0 160.84 7.3" fill="#3ab2dd"/>
        <polygon points="145.36 0.69 154.35 7.99 154.34 28.8 145.35 21.51 145.36 0.69" fill="#2d8cad"/>
      </g>
      <polygon points="148.01 56.53 151.63 62.63 151.63 15.96 148.01 12.85 148.01 56.53" fill="#e2e2e2"/>
    </g>
  </g>
  <text transform="translate(28.98 271.39)" font-size="24" font-family="Montserrat-Regular, Montserrat">Sensor Man<tspan x="141.53" y="0" letter-spacing="0em">a</tspan><tspan x="155.73" y="0">ger</tspan></text>
  <text transform="translate(337.73 270.71)" font-size="24" font-family="Montserrat-Regular, Montserrat"><tspan letter-spacing="-0.02em">C</tspan><tspan x="16.7" y="0">ont</tspan><tspan x="57.74" y="0" letter-spacing="-0.01em">r</tspan><tspan x="67.06" y="0">ol Se</tspan><tspan x="124.1" y="0" letter-spacing="0.01em">r</tspan><tspan x="134.09" y="0" letter-spacing="-0.01em">v</tspan><tspan x="146.73" y="0" letter-spacing="0em">er</tspan></text>
  <text transform="translate(699.76 271.39)" font-size="24" font-family="Montserrat-Regular, Montserrat">Client</text>
  <g>
    <rect x="364.63" y="191.04" width="117.5" height="29.96" fill="#672dd6"/>
    <polygon points="364.63 220.88 354.53 209.01 354.53 179.04 364.63 190.92 364.63 220.88" fill="#8557de"/>
    <polygon points="482.13 190.76 364.81 190.82 355.01 179.54 472.34 179.48 482.13 190.76" fill="#c2abef"/>
    <rect x="374.1" y="197.92" width="98.35" height="4.08" rx="2.04"/>
  </g>
  <g>
    <path d="M757.35,115.58s28.14,10.56,38,23.14,18,85.36,18,85.36H652.22s8.08-72.78,18-85.36,38-23.14,38-23.14m0,0h49.14" fill="#ba0631"/>
    <g opacity="0.3">
      <g clip-path="url(#clip-path-23)">
        <path d="M756.26,115.4S784.91,126,795,138.53s18.3,85.37,18.3,85.37h-80.8V115.4Z"/>
      </g>
    </g>
    <path d="M668.39,138.72c-9.88,12.31-18,83.56-18,83.56" fill="none" stroke="#f9b2c9" stroke-linecap="round" stroke-miterlimit="10" stroke-width="6"/>
    <path d="M795.37,138.72c9.73,12.18,17.69,82.67,17.69,82.67" fill="none" stroke="#51041a" stroke-linecap="round" stroke-linejoin="round" stroke-width="6"/>
    <g opacity="0.7">
      <g clip-path="url(#clip-path-24)">
        <g clip-path="url(#clip-path-25)">
          <image width="852" height="898" transform="translate(694.45 140.52) scale(0.09 0.09)" xlink:href="openlab-021.png"/>
        </g>
      </g>
    </g>
    <path d="M713.32,118.05l-3.6,6.86s23.82,22.13,45.61,0l-2.83-6.86" fill="#af15a7"/>
    <path d="M780.71,68.18c0,29-21.52,52.57-48.07,52.57s-48.08-23.54-48.08-52.57,21.53-52.56,48.08-52.56,48.07,23.53,48.07,52.56" fill="#dc60ea"/>
    <ellipse cx="732.64" cy="68.18" rx="48.07" ry="52.57" fill="none" stroke="#dc60ea" stroke-miterlimit="10" stroke-width="6"/>
    <g clip-path="url(#clip-path-26)">
      <path d="M780.71,69.08c0,29-22.27,52.57-49.74,52.57a47.88,47.88,0,0,1-30.77-11.27c22.92-3.22,40.53-22.29,40.53-45.34,0-20-13.18-36.91-31.58-43.2A47.29,47.29,0,0,1,731,16.52c27.47,0,49.74,23.53,49.74,52.56" opacity="0.1"/>
    </g>
    <path d="M734.31,90.72a23.22,23.22,0,0,0,2.2-7.71" fill="none" stroke="#b237c4" stroke-linecap="round" stroke-miterlimit="10" stroke-width="2"/>
    <path d="M750.34,20.36s8.5-5.15,4.47-12.65L758.75,19s6.74-3.69,8.39-1.94c0,0-7.94,4-6.26,8.39" fill="#9107a5"/>
    <path d="M750.34,20.36s8.5-5.15,4.47-12.65L758.75,19s6.74-3.69,8.39-1.94c0,0-7.94,4-6.26,8.39" fill="none" stroke="#000" stroke-miterlimit="10" stroke-width="3"/>
    <g clip-path="url(#clip-path-27)">
      <path d="M702.09,110.41c22.46,19.77,48.52,8.46,48.52,8.46,16-6.45,28-21.93,30.81-40.8" fill="none" stroke="#ac3cbf" stroke-miterlimit="10" stroke-width="3"/>
    </g>
    <path d="M684.56,50.66,682.9,62.34S748.56,58,759,33.46c0,0,7.76,14.95,15.85,20.35s5.84,3.86,5.84,3.86-1.35-12-7.64-20.94S747.91,8,716.46,17c0,0-21.56,6.29-31.9,33.69" fill="#9107a5"/>
    <path d="M684.56,50.66,682.9,62.34S748.56,58,759,33.46c0,0,7.76,14.95,15.85,20.35s5.84,3.86,5.84,3.86-1.35-12-7.64-20.94S747.91,8,716.46,17C716.46,17,694.9,23.26,684.56,50.66Z" fill="none" stroke="#000" stroke-miterlimit="10" stroke-width="3"/>
    <path d="M688.2,55.15a52.83,52.83,0,0,1,15.13-23.36" fill="none" stroke="#fff" stroke-miterlimit="10" stroke-width="4"/>
    <path d="M734.25,85.67s-5.27,6.69-1.42,10.1" fill="none" stroke="#fff" stroke-miterlimit="10" stroke-width="2"/>
    <path d="M686.36,83.17s1.8,7,4.49,11.52,5.39,8.09,5.39,8.09l3.6,3.59" fill="none" stroke="#fff" stroke-miterlimit="10" stroke-width="2"/>
    <g clip-path="url(#clip-path-28)">
      <path d="M759,33.46A60.19,60.19,0,0,0,769,48a60.29,60.29,0,0,0,11.68,9.7c-9-33.43-34.15-39.81-34.15-39.81s1.8,4.05,0,13.93-11.95,20.09-11.95,20.09L751.29,43" opacity="0.3"/>
    </g>
    <path d="M727.91,107.27a32.51,32.51,0,0,0,6.52.45,33.37,33.37,0,0,0,4.49-.45" fill="none" stroke="#9b127b" stroke-linecap="round" stroke-miterlimit="10" stroke-width="4"/>
    <path d="M705.23,83A8.21,8.21,0,0,1,714,78c4.05.75,5.7,4.76,5.81,5" fill="none" stroke="#a000a0" stroke-linecap="round" stroke-miterlimit="10" stroke-width="3"/>
    <path d="M745.67,83a8.2,8.2,0,0,1,8.79-5c4,.75,5.7,4.76,5.8,5" fill="none" stroke="#a000a0" stroke-linecap="round" stroke-miterlimit="10" stroke-width="3"/>
    <path d="M746.56,70.43a23.2,23.2,0,0,1,12.8,0" fill="none" stroke="#a000a0" stroke-linecap="round" stroke-miterlimit="10" stroke-width="4"/>
    <g clip-path="url(#clip-path-29)">
      <path d="M706.13,70.43a23.16,23.16,0,0,1,5.39-.9,22.77,22.77,0,0,1,7.41.9" fill="none" stroke="#a000a0" stroke-linecap="round" stroke-miterlimit="10" stroke-width="4"/>
    </g>
    <polyline points="764.37 245.13 880.28 245.13 880.28 241.9 764.37 242.89" fill="#4d4d4d"/>
    <polygon points="721.24 222 825 221.97 867.7 243.09 763.93 243.12 721.24 222" fill="#ceccc8"/>
    <path d="M877.58,148.08H768a7.19,7.19,0,0,0-7.19,7.19v80.87a7.19,7.19,0,0,0,7.19,7.19H877.58a7.19,7.19,0,0,0,7.19-7.19V155.27a7.19,7.19,0,0,0-7.19-7.19" fill="#7c7c7c"/>
    <polygon points="721.24 224.46 764.37 245.13 764.37 242.89 721.24 222 721.24 224.46" fill="#999"/>
    <g opacity="0.4">
      <g clip-path="url(#clip-path-30)">
        <path d="M764.37,242.89l118.4-92.59s2.9,2.27,2,5,0,80.87,0,80.87,0,7.19-7.19,7.19"/>
      </g>
    </g>
    <path d="M734.68,122.06s54.24-3.42,46-64.39" fill="none" stroke="#9727aa" stroke-miterlimit="10" stroke-width="4"/>
  </g>
</svg>
